<mxfile host="app.diagrams.net" agent="Mozilla/5.0 (Windows NT 10.0; Win64; x64) AppleWebKit/537.36 (KHTML, like Gecko) Chrome/128.0.0.0 Safari/537.36" version="24.7.14">
  <diagram name="Trang-1" id="_VM0MQYbhJ28y2sZ4-F6">
    <mxGraphModel dx="1176" dy="511" grid="0" gridSize="10" guides="1" tooltips="1" connect="1" arrows="1" fold="1" page="1" pageScale="1" pageWidth="827" pageHeight="1169" math="0" shadow="0">
      <root>
        <mxCell id="0" />
        <mxCell id="1" parent="0" />
        <mxCell id="Zkv2kU7U77iVJ3DsSLsE-1" value="cấu trúc đề thi" style="ellipse;whiteSpace=wrap;html=1;align=center;newEdgeStyle={&quot;edgeStyle&quot;:&quot;entityRelationEdgeStyle&quot;,&quot;startArrow&quot;:&quot;none&quot;,&quot;endArrow&quot;:&quot;none&quot;,&quot;segment&quot;:10,&quot;curved&quot;:1,&quot;sourcePerimeterSpacing&quot;:0,&quot;targetPerimeterSpacing&quot;:0};treeFolding=1;treeMoving=1;" vertex="1" parent="1">
          <mxGeometry x="26" y="502" width="100" height="40" as="geometry" />
        </mxCell>
        <mxCell id="Zkv2kU7U77iVJ3DsSLsE-2" value="listening: 40 min&amp;nbsp;" style="whiteSpace=wrap;html=1;rounded=1;arcSize=50;align=center;verticalAlign=middle;strokeWidth=1;autosize=1;spacing=4;treeFolding=1;treeMoving=1;newEdgeStyle={&quot;edgeStyle&quot;:&quot;entityRelationEdgeStyle&quot;,&quot;startArrow&quot;:&quot;none&quot;,&quot;endArrow&quot;:&quot;none&quot;,&quot;segment&quot;:10,&quot;curved&quot;:1,&quot;sourcePerimeterSpacing&quot;:0,&quot;targetPerimeterSpacing&quot;:0};" vertex="1" parent="1">
          <mxGeometry x="150" y="427" width="129" height="30" as="geometry" />
        </mxCell>
        <mxCell id="Zkv2kU7U77iVJ3DsSLsE-3" value="" style="edgeStyle=entityRelationEdgeStyle;startArrow=none;endArrow=none;segment=10;curved=1;sourcePerimeterSpacing=0;targetPerimeterSpacing=0;rounded=0;exitX=1;exitY=0.5;exitDx=0;exitDy=0;" edge="1" target="Zkv2kU7U77iVJ3DsSLsE-2" parent="1" source="Zkv2kU7U77iVJ3DsSLsE-1">
          <mxGeometry relative="1" as="geometry">
            <mxPoint x="162" y="473" as="sourcePoint" />
            <Array as="points">
              <mxPoint x="116" y="525" />
            </Array>
          </mxGeometry>
        </mxCell>
        <mxCell id="Zkv2kU7U77iVJ3DsSLsE-4" value="3 phần, 35 câu tn" style="whiteSpace=wrap;html=1;rounded=1;arcSize=50;align=center;verticalAlign=middle;strokeWidth=1;autosize=1;spacing=4;treeFolding=1;treeMoving=1;newEdgeStyle={&quot;edgeStyle&quot;:&quot;entityRelationEdgeStyle&quot;,&quot;startArrow&quot;:&quot;none&quot;,&quot;endArrow&quot;:&quot;none&quot;,&quot;segment&quot;:10,&quot;curved&quot;:1,&quot;sourcePerimeterSpacing&quot;:0,&quot;targetPerimeterSpacing&quot;:0};" vertex="1" parent="1">
          <mxGeometry x="303" y="370" width="132" height="30" as="geometry" />
        </mxCell>
        <mxCell id="Zkv2kU7U77iVJ3DsSLsE-5" value="" style="edgeStyle=entityRelationEdgeStyle;startArrow=none;endArrow=none;segment=10;curved=1;sourcePerimeterSpacing=0;targetPerimeterSpacing=0;rounded=0;" edge="1" target="Zkv2kU7U77iVJ3DsSLsE-4" parent="1" source="Zkv2kU7U77iVJ3DsSLsE-2">
          <mxGeometry relative="1" as="geometry">
            <mxPoint x="381" y="453" as="sourcePoint" />
          </mxGeometry>
        </mxCell>
        <mxCell id="Zkv2kU7U77iVJ3DsSLsE-7" value="phần 1&amp;nbsp;" style="whiteSpace=wrap;html=1;rounded=1;arcSize=50;align=center;verticalAlign=middle;strokeWidth=1;autosize=1;spacing=4;treeFolding=1;treeMoving=1;newEdgeStyle={&quot;edgeStyle&quot;:&quot;entityRelationEdgeStyle&quot;,&quot;startArrow&quot;:&quot;none&quot;,&quot;endArrow&quot;:&quot;none&quot;,&quot;segment&quot;:10,&quot;curved&quot;:1,&quot;sourcePerimeterSpacing&quot;:0,&quot;targetPerimeterSpacing&quot;:0};" vertex="1" parent="1">
          <mxGeometry x="311" y="457" width="79" height="30" as="geometry" />
        </mxCell>
        <mxCell id="Zkv2kU7U77iVJ3DsSLsE-8" value="" style="edgeStyle=entityRelationEdgeStyle;startArrow=none;endArrow=none;segment=10;curved=1;sourcePerimeterSpacing=0;targetPerimeterSpacing=0;rounded=0;" edge="1" target="Zkv2kU7U77iVJ3DsSLsE-7" parent="1" source="Zkv2kU7U77iVJ3DsSLsE-2">
          <mxGeometry relative="1" as="geometry">
            <mxPoint x="317" y="472" as="sourcePoint" />
          </mxGeometry>
        </mxCell>
        <mxCell id="Zkv2kU7U77iVJ3DsSLsE-9" value="8 câu: 8 thông báo, hướng dẫn&amp;nbsp;" style="whiteSpace=wrap;html=1;rounded=1;arcSize=50;align=center;verticalAlign=middle;strokeWidth=1;autosize=1;spacing=4;treeFolding=1;treeMoving=1;newEdgeStyle={&quot;edgeStyle&quot;:&quot;entityRelationEdgeStyle&quot;,&quot;startArrow&quot;:&quot;none&quot;,&quot;endArrow&quot;:&quot;none&quot;,&quot;segment&quot;:10,&quot;curved&quot;:1,&quot;sourcePerimeterSpacing&quot;:0,&quot;targetPerimeterSpacing&quot;:0};" vertex="1" parent="1">
          <mxGeometry x="424" y="420" width="208" height="30" as="geometry" />
        </mxCell>
        <mxCell id="Zkv2kU7U77iVJ3DsSLsE-10" value="" style="edgeStyle=entityRelationEdgeStyle;startArrow=none;endArrow=none;segment=10;curved=1;sourcePerimeterSpacing=0;targetPerimeterSpacing=0;rounded=0;exitX=1;exitY=0.5;exitDx=0;exitDy=0;" edge="1" target="Zkv2kU7U77iVJ3DsSLsE-9" parent="1" source="Zkv2kU7U77iVJ3DsSLsE-7">
          <mxGeometry relative="1" as="geometry">
            <mxPoint x="505" y="465" as="sourcePoint" />
          </mxGeometry>
        </mxCell>
        <mxCell id="Zkv2kU7U77iVJ3DsSLsE-17" value="1 bài nghe có 1 câu hỏi&amp;nbsp;" style="whiteSpace=wrap;html=1;rounded=1;arcSize=50;align=center;verticalAlign=middle;strokeWidth=1;autosize=1;spacing=4;treeFolding=1;treeMoving=1;newEdgeStyle={&quot;edgeStyle&quot;:&quot;entityRelationEdgeStyle&quot;,&quot;startArrow&quot;:&quot;none&quot;,&quot;endArrow&quot;:&quot;none&quot;,&quot;segment&quot;:10,&quot;curved&quot;:1,&quot;sourcePerimeterSpacing&quot;:0,&quot;targetPerimeterSpacing&quot;:0};" vertex="1" parent="1">
          <mxGeometry x="427" y="487" width="166" height="30" as="geometry" />
        </mxCell>
        <mxCell id="Zkv2kU7U77iVJ3DsSLsE-18" value="" style="edgeStyle=entityRelationEdgeStyle;startArrow=none;endArrow=none;segment=10;curved=1;sourcePerimeterSpacing=0;targetPerimeterSpacing=0;rounded=0;" edge="1" target="Zkv2kU7U77iVJ3DsSLsE-17" parent="1" source="Zkv2kU7U77iVJ3DsSLsE-7">
          <mxGeometry relative="1" as="geometry">
            <mxPoint x="342" y="578" as="sourcePoint" />
          </mxGeometry>
        </mxCell>
      </root>
    </mxGraphModel>
  </diagram>
</mxfile>
